<?xml version="1.0" standalone="no"?><!DOCTYPE svg PUBLIC "-//W3C//DTD SVG 1.1//EN" "http://www.w3.org/Graphics/SVG/1.1/DTD/svg11.dtd"><svg t="1659505012222" class="icon" viewBox="0 0 1024 1024" version="1.1" xmlns="http://www.w3.org/2000/svg" p-id="5831" xmlns:xlink="http://www.w3.org/1999/xlink" width="200" height="200"><defs><style type="text/css">@font-face { font-family: feedback-iconfont; src: url("//at.alicdn.com/t/font_1031158_u69w8yhxdu.woff2?t=1630033759944") format("woff2"), url("//at.alicdn.com/t/font_1031158_u69w8yhxdu.woff?t=1630033759944") format("woff"), url("//at.alicdn.com/t/font_1031158_u69w8yhxdu.ttf?t=1630033759944") format("truetype"); }
</style></defs><path d="M512.574 457.218c-63.549 0-115.236-52.224-115.236-116.486 0-64.223 51.687-116.448 115.236-116.448 63.551 0 115.236 52.225 115.236 116.448 0.001 64.262-51.684 116.486-115.236 116.486z m0-200.937c-46.09 0-83.567 37.879-83.567 84.451 0 46.57 37.477 84.49 83.567 84.49 46.11 0 83.587-37.92 83.587-84.49 0-46.572-37.476-84.451-83.587-84.451z m-0.46 608.465L500.116 850.4c-10.462-12.497-256.374-307.85-256.374-500.71 0-154.788 120.602-280.696 268.832-280.696 147.597 0 268.199 125.908 268.872 280.62 0.808 192.937-246.72 488.326-257.258 500.824l-12.074 14.307z m0.46-763.754c-130.792 0-237.183 111.563-237.183 248.7 0 157.867 187.035 402.836 236.799 465.214 50.033-62.338 238.298-307.27 237.604-465.136-0.576-137.214-106.967-248.778-237.22-248.778zM704.84 654.54v31.65h63.338l63.378 237.165H198.036l63.377-237.166h47.494V654.54h-79.202l-79.163 300.465H879.07L799.885 654.54h-95.044z" p-id="5832"></path></svg>