<?xml version="1.0" standalone="no"?><!DOCTYPE svg PUBLIC "-//W3C//DTD SVG 1.1//EN" "http://www.w3.org/Graphics/SVG/1.1/DTD/svg11.dtd"><svg t="1659524521737" class="icon" viewBox="0 0 1024 1024" version="1.1" xmlns="http://www.w3.org/2000/svg" p-id="2772" xmlns:xlink="http://www.w3.org/1999/xlink" width="200" height="200"><defs><style type="text/css">@font-face { font-family: feedback-iconfont; src: url("//at.alicdn.com/t/font_1031158_u69w8yhxdu.woff2?t=1630033759944") format("woff2"), url("//at.alicdn.com/t/font_1031158_u69w8yhxdu.woff?t=1630033759944") format("woff"), url("//at.alicdn.com/t/font_1031158_u69w8yhxdu.ttf?t=1630033759944") format("truetype"); }
</style></defs><path d="M0 0h1024v1024H0z" fill="#FFFFFF" p-id="2773"></path><path d="M228 80c-44.112 0-80 35.888-80 80v704c0 44.112 35.888 80 80 80h626c44.112 0 80-35.888 80-80V160c0-44.112-35.888-80-80-80H228m0-80h626c88.366 0 160 71.634 160 160v704c0 88.366-71.634 160-160 160H228c-88.366 0-160-71.634-160-160V160c0-88.366 71.634-160 160-160z" fill="#707070" p-id="2774"></path><path d="M310 432h464a12 12 0 0 1 12 12v56a12 12 0 0 1-12 12H310a12 12 0 0 1-12-12v-56a12 12 0 0 1 12-12zM310 626h464a12 12 0 0 1 12 12v56a12 12 0 0 1-12 12H310a12 12 0 0 1-12-12v-56a12 12 0 0 1 12-12zM310 238h464a12 12 0 0 1 12 12v56a12 12 0 0 1-12 12H310a12 12 0 0 1-12-12v-56a12 12 0 0 1 12-12zM22 250h178a12 12 0 0 1 12 12v56a12 12 0 0 1-12 12H22a12 12 0 0 1-12-12v-56a12 12 0 0 1 12-12zM22 694h178a12 12 0 0 1 12 12v56a12 12 0 0 1-12 12H22a12 12 0 0 1-12-12v-56a12 12 0 0 1 12-12z" fill="#707070" p-id="2775"></path></svg>