<?xml version="1.0" standalone="no"?><!DOCTYPE svg PUBLIC "-//W3C//DTD SVG 1.1//EN" "http://www.w3.org/Graphics/SVG/1.1/DTD/svg11.dtd"><svg t="1659505128977" class="icon" viewBox="0 0 1024 1024" version="1.1" xmlns="http://www.w3.org/2000/svg" p-id="11409" xmlns:xlink="http://www.w3.org/1999/xlink" width="200" height="200"><defs><style type="text/css">@font-face { font-family: feedback-iconfont; src: url("//at.alicdn.com/t/font_1031158_u69w8yhxdu.woff2?t=1630033759944") format("woff2"), url("//at.alicdn.com/t/font_1031158_u69w8yhxdu.woff?t=1630033759944") format("woff"), url("//at.alicdn.com/t/font_1031158_u69w8yhxdu.ttf?t=1630033759944") format("truetype"); }
</style></defs><path d="M 512 144 a 144 144 0 0 1 144 144 h 80 c 0 -123.71 -100.29 -224 -224 -224 S 288 164.29 288 288 h 80 a 144 144 0 0 1 144 -144 Z M 826 288 H 198 a 70 70 0 0 0 -70 70 v 532 a 70 70 0 0 0 70 70 h 628 a 70 70 0 0 0 70 -70 V 358 a 70 70 0 0 0 -70 -70 Z m -10 547.2 a 44.8 44.8 0 0 1 -44.8 44.8 H 252.8 a 44.8 44.8 0 0 1 -44.8 -44.8 V 400 a 32 32 0 0 1 32 -32 h 531.2 a 44.8 44.8 0 0 1 44.8 44.8 Z" fill="#999999" p-id="11410"></path><path d="M 656 288 h 80 v 168.04 h -80 Z M 288 288 h 80 v 168.04 h -80 Z" fill="#999999" p-id="11411"></path><path d="M 696 408 a 84 84 0 1 0 84 84 a 84 84 0 0 0 -84 -84 Z m 0 104 a 20 20 0 1 1 20 -20 a 20 20 0 0 1 -20 20 Z M 328 408 a 84 84 0 1 0 84 84 a 84 84 0 0 0 -84 -84 Z m 0 104 a 20 20 0 1 1 20 -20 a 20 20 0 0 1 -20 20 Z" fill="#999999" p-id="11412"></path></svg>